The HORiZON-ArtSubs has the honor to present the new work of the Master of Horror, Dario Argento


Dracula

Country:
Italy/2012

Language:
English

Subtitle:
French

Director:
Dario Argento

Writers:
Dario Argento (screenplay), Enrique Cerezo (screenplay)

Stars:
Rutger Hauer, Asia Argento, Thomas Kretschmann 

Synopsis:
The tale begins with Jonathan Harker, journeying by train and carriage from England to Count Dracula's crumbling.

Trivia:
New film from Master of Horror Dario Argento ("Suspiria")
Official Selection Cannes Film Festival 2012

Imdb: 
http://www.imdb.com/title/tt1852770

Trailer: 
http://cinerepublic.filmtv.it/cannes-2012-dracula-3d-trailer-internazionale-per/12065/


Media Info:

General
Complete name                            : Dracula.2012.DVDRip.XviD.AC3.HORiZON-ArtSubs
Format                                   : AVI
Format/Info                              : Audio Video Interleave
File size                                : 1.37 GiB
Duration                                 : 1h 45mn
Overall bit rate                         : 1 856 Kbps

Video
ID                                       : 0
Format                                   : MPEG-4 Visual
Format profile                           : Advanced Simple@L5
Format settings, BVOP                    : 2
Format settings, QPel                    : No
Format settings, GMC                     : No warppoints
Format settings, Matrix                  : Default (MPEG)
Codec ID                                 : XVID
Codec ID/Hint                            : XviD
Duration                                 : 1h 45mn
Bit rate                                 : 1 398 Kbps
Width                                    : 640 pixels
Height                                   : 272 pixels
Display aspect ratio                     : 2.35:1
Frame rate                               : 25.000 fps
Color space                              : YUV
Chroma subsampling                       : 4:2:0
Bit depth                                : 8 bits
Scan type                                : Progressive
Compression mode                         : Lossy
Bits/(Pixel*Frame)                       : 0.321
Stream size                              : 1.03 GiB (75%)
Writing library                          : XviD 1.1.0 (UTC 2005-11-22)

Audio
ID                                       : 1
Format                                   : AC-3
Format/Info                              : Audio Coding 3
Mode extension                           : CM (complete main)
Format settings, Endianness              : Big
Codec ID                                 : 2000
Duration                                 : 1h 45mn
Bit rate mode                            : Constant
Bit rate                                 : 448 Kbps
Channel(s)                               : 6 channels
Channel positions                        : Front: L C R, Side: L R, LFE
Sampling rate                            : 48.0 KHz
Bit depth                                : 16 bits
Compression mode                         : Lossy
Delay relative to video                  : 16ms
Stream size                              : 338 MiB (24%)
Alignment                                : Split accross interleaves
Interleave, duration                     : 40 ms (1.00 video frame)
Interleave, preload duration             : 500 ms

